<?xml version="1.0" encoding="UTF-8" standalone="no"?>
<!DOCTYPE svg PUBLIC "-//W3C//DTD SVG 1.1//EN" "http://www.w3.org/Graphics/SVG/1.1/DTD/svg11.dtd">
<svg width="100%" height="100%" viewBox="0 0 645 168" version="1.1" xmlns="http://www.w3.org/2000/svg" xmlns:xlink="http://www.w3.org/1999/xlink" xml:space="preserve" xmlns:serif="http://www.serif.com/" style="fill-rule:evenodd;clip-rule:evenodd;stroke-linejoin:round;stroke-miterlimit:2;">
    <g transform="matrix(1,0,0,1,-569.883771,-1028.429563)">
        <g transform="matrix(1,0,0,1,-627.627521,167.379792)">
            <g transform="matrix(4.257831,-4.257831,0.707107,0.707107,-4569.675782,5379.656495)">
                <path d="M1209.072,941.358L1217.579,941.358L1217.579,960.781L1217.579,995.786L1214.353,995.786L1214.353,960.781L1198.156,960.781L1198.156,941.358L1204.502,941.358L1208.693,916.121L1210.978,929.882L1209.072,941.358Z" style="fill:rgb(215,175,56);"/>
            </g>
            <g transform="matrix(-4.257831,4.257831,-0.707107,-0.707107,7126.637387,-3490.17716)">
                <path d="M1214.353,960.781L1198.156,960.781L1198.156,941.358L1217.579,941.358L1217.579,960.781L1217.579,960.781L1217.579,995.786L1214.353,995.786L1214.353,960.781Z" style="fill:rgb(215,175,56);"/>
            </g>
            <g transform="matrix(1.026745,-0,0,0.690458,0.844382,313.106748)">
                <rect x="1225.891" y="882.922" width="18.264" height="28.226" style="fill:rgb(215,175,56);"/>
            </g>
            <g transform="matrix(1.026745,-0,0,0.690458,21.428047,313.106748)">
                <rect x="1225.891" y="882.922" width="18.264" height="28.226" style="fill:rgb(215,175,56);"/>
            </g>
            <g transform="matrix(1.026745,-0,0,0.690458,21.428047,334.765955)">
                <rect x="1225.891" y="882.922" width="18.264" height="28.226" style="fill:rgb(215,175,56);"/>
            </g>
            <g transform="matrix(1.026745,-0,0,0.690458,0.844382,334.765955)">
                <rect x="1225.891" y="882.922" width="18.264" height="28.226" style="fill:rgb(215,175,56);"/>
            </g>
        </g>
        <g transform="matrix(0.868467,0,0,1.03195,-454.89605,143.881567)">
            <path d="M1456.105,980.876L1426.408,904.326L1424.694,904.326L1424.694,965.236C1424.694,968.878 1425.179,971.357 1426.149,972.671C1427.119,973.986 1429.296,974.807 1432.68,975.134L1436.259,975.475L1436.259,980.062C1434.647,979.954 1432.533,979.868 1429.918,979.803C1427.303,979.737 1424.785,979.705 1422.362,979.705C1420.673,979.705 1418.882,979.724 1416.99,979.764C1415.097,979.804 1413.305,979.843 1411.612,979.883C1409.92,979.923 1408.471,979.982 1407.265,980.062L1407.265,975.475L1411.316,975.078C1413.726,974.813 1415.543,974.387 1416.768,973.8C1417.995,973.214 1418.825,972.256 1419.259,970.926C1419.694,969.596 1419.912,967.699 1419.912,965.236L1419.912,910.574C1419.912,908.072 1419.686,906.166 1419.233,904.858C1418.782,903.55 1417.93,902.595 1416.677,901.995C1415.425,901.395 1413.584,900.978 1411.154,900.743L1407.328,900.336L1407.328,895.749C1408.9,895.777 1410.803,895.829 1413.037,895.903C1415.271,895.976 1417.644,896.028 1420.156,896.059C1422.668,896.09 1425.096,896.106 1427.44,896.106L1429.501,896.132C1432.078,896.132 1434.464,896.092 1436.661,896.013C1438.858,895.933 1440.777,895.854 1442.418,895.775L1466.499,958.754L1462.6,960.8L1484.814,895.784C1487.423,895.919 1489.787,896.011 1491.905,896.059C1494.024,896.108 1496.196,896.132 1498.419,896.132L1499.742,896.124C1502.135,896.124 1504.576,896.106 1507.063,896.069C1509.551,896.031 1511.917,895.982 1514.16,895.92C1516.403,895.857 1518.301,895.814 1519.854,895.791L1519.854,900.379L1516.029,900.769C1513.62,901.004 1511.785,901.421 1510.525,902.021C1509.266,902.621 1508.409,903.576 1507.953,904.884C1507.497,906.192 1507.27,908.098 1507.27,910.6L1507.27,965.236C1507.27,967.704 1507.497,969.601 1507.953,970.926C1508.409,972.252 1509.266,973.197 1510.525,973.761C1511.785,974.324 1513.62,974.76 1516.029,975.067L1519.854,975.475L1519.854,980.062C1518.301,979.982 1516.403,979.923 1514.16,979.883C1511.917,979.843 1509.551,979.804 1507.063,979.764C1504.576,979.724 1502.135,979.705 1499.742,979.705L1496.959,979.705C1494.832,979.705 1492.629,979.724 1490.348,979.764C1488.069,979.804 1485.922,979.843 1483.906,979.883C1481.893,979.923 1480.163,979.982 1478.717,980.062L1478.726,975.475L1481.516,975.116C1483.658,974.809 1485.275,974.365 1486.367,973.784C1487.461,973.201 1488.201,972.249 1488.587,970.928C1488.974,969.606 1489.167,967.709 1489.167,965.236L1489.186,902.455L1487.471,902.455L1460.433,980.876L1456.105,980.876Z" style="fill:rgb(215,175,56);fill-rule:nonzero;"/>
            <path d="M1570.985,981.728C1562.819,981.728 1555.703,979.969 1549.635,976.449C1543.567,972.929 1538.877,967.961 1535.566,961.546C1532.257,955.131 1530.602,947.584 1530.602,938.906C1530.602,929.946 1532.339,922.111 1535.814,915.401C1539.289,908.691 1544.168,903.465 1550.451,899.722C1556.735,895.979 1564.043,894.108 1572.377,894.108C1576.467,894.108 1579.989,894.491 1582.944,895.256C1585.899,896.02 1588.422,896.924 1590.511,897.97C1592.601,899.015 1594.404,899.92 1595.921,900.686C1597.437,901.449 1598.789,901.831 1599.976,901.831C1601.187,901.831 1602.13,901.274 1602.803,900.159C1603.477,899.044 1603.978,897.243 1604.306,894.755L1609.087,894.755C1608.958,897.33 1608.857,900.02 1608.785,902.825C1608.715,905.629 1608.664,908.907 1608.633,912.661C1608.602,916.415 1608.586,921.071 1608.586,926.629L1603.806,926.629C1603.075,921.086 1601.46,916.294 1598.958,912.254C1596.457,908.212 1593.284,905.084 1589.44,902.867C1585.596,900.65 1581.233,899.542 1576.352,899.542C1570.702,899.542 1565.873,901.071 1561.863,904.129C1557.854,907.187 1554.798,911.618 1552.695,917.423C1550.591,923.228 1549.54,930.257 1549.54,938.512C1549.54,950.605 1551.783,960.017 1556.268,966.747C1560.755,973.477 1567.025,976.842 1575.078,976.842C1578.287,976.842 1581.036,976.365 1583.326,975.411C1585.616,974.458 1587.385,973.098 1588.633,971.332C1589.88,969.566 1590.504,967.47 1590.504,965.043L1590.504,954.875C1590.504,952.4 1590.271,950.505 1589.806,949.191C1589.341,947.875 1588.459,946.919 1587.159,946.324C1585.86,945.729 1583.94,945.307 1581.4,945.057L1577.053,944.637L1577.053,940.05C1578.689,940.078 1580.676,940.126 1583.015,940.191C1585.355,940.256 1587.845,940.308 1590.484,940.348C1593.122,940.387 1595.673,940.407 1598.134,940.407L1599.593,940.407L1600.404,940.4C1602.55,940.405 1604.959,940.367 1607.628,940.288C1610.3,940.209 1612.73,940.129 1614.918,940.05L1614.918,944.637L1613.698,944.868C1611.568,945.268 1610.188,946.094 1609.559,947.345C1608.931,948.597 1608.616,951.107 1608.616,954.875L1608.609,978.187L1603.917,978.187C1603.518,976.979 1602.969,976.113 1602.269,975.588C1601.57,975.062 1600.634,974.799 1599.461,974.799C1597.991,974.799 1596.411,975.141 1594.719,975.824C1593.028,976.506 1591.095,977.32 1588.921,978.265C1586.748,979.208 1584.209,980.021 1581.302,980.703C1578.396,981.387 1574.957,981.728 1570.985,981.728Z" style="fill:rgb(215,175,56);fill-rule:nonzero;"/>
            <path d="M1671.225,950.299L1671.225,910.6C1671.225,908.116 1671.007,906.214 1670.572,904.895C1670.138,903.576 1669.308,902.61 1668.081,901.997C1666.856,901.383 1665.039,900.97 1662.629,900.758L1658.578,900.362L1658.578,895.775C1660.29,895.803 1662.372,895.85 1664.822,895.916C1667.274,895.981 1669.883,896.033 1672.648,896.072C1675.413,896.112 1678.072,896.132 1680.624,896.132C1683.302,896.132 1686.004,896.072 1688.733,895.953C1691.462,895.834 1693.672,895.775 1695.362,895.775L1699.641,895.775C1710.692,895.775 1719.119,897.908 1724.92,902.175C1730.722,906.441 1733.624,912.599 1733.624,920.647C1733.624,926.17 1732.186,930.922 1729.312,934.903C1726.438,938.882 1722.308,941.924 1716.921,944.027C1711.536,946.129 1705.048,947.18 1697.459,947.18C1695.786,947.18 1694.119,947.117 1692.459,946.99C1690.799,946.862 1689.25,946.676 1687.81,946.43C1686.372,946.183 1685.117,945.922 1684.047,945.645L1684.047,941.058C1685.618,941.533 1687.378,941.896 1689.326,942.148C1691.276,942.4 1693.317,942.526 1695.45,942.526C1702.079,942.526 1706.942,940.802 1710.039,937.355C1713.137,933.907 1714.685,928.487 1714.685,921.093C1714.685,913.997 1713.312,908.787 1710.565,905.462C1707.818,902.138 1703.548,900.48 1697.754,900.488L1689.33,900.496L1689.33,950.299L1671.225,950.299ZM1678.753,979.738C1676.409,979.716 1673.981,979.724 1671.469,979.764C1668.957,979.804 1666.585,979.838 1664.35,979.866C1662.116,979.894 1660.214,979.944 1658.641,980.019L1658.641,975.432L1662.467,975.067C1664.897,974.76 1666.739,974.324 1667.994,973.761C1669.249,973.197 1670.102,972.252 1670.553,970.926C1671.006,969.601 1671.232,967.704 1671.232,965.236L1671.225,950.299L1689.33,950.299L1689.337,965.236C1689.337,968.854 1689.891,971.269 1690.998,972.482C1692.106,973.693 1694.455,974.497 1698.046,974.894L1704.436,975.475L1704.436,980.062C1702.547,979.982 1700.327,979.923 1697.775,979.883C1695.223,979.843 1692.545,979.804 1689.743,979.764C1686.94,979.724 1684.199,979.705 1681.519,979.705L1680.403,979.705L1678.753,979.738Z" style="fill:rgb(215,175,56);fill-rule:nonzero;"/>
            <path d="M1754.855,958.633L1754.855,910.6C1754.855,908.098 1754.629,906.192 1754.176,904.884C1753.725,903.576 1752.873,902.621 1751.62,902.021C1750.368,901.421 1748.527,901.004 1746.098,900.769L1742.271,900.362L1742.271,895.775C1743.844,895.803 1745.747,895.85 1747.98,895.916C1750.215,895.981 1752.588,896.033 1755.099,896.072C1757.611,896.112 1760.04,896.132 1762.383,896.132L1763.847,896.132C1766.821,896.132 1769.511,896.112 1771.918,896.072C1774.325,896.033 1776.473,895.973 1778.362,895.894C1780.251,895.814 1781.848,895.775 1783.156,895.775C1794.176,895.775 1802.508,897.557 1808.152,901.121C1813.797,904.685 1816.62,909.921 1816.62,916.828C1816.62,921.606 1815.194,925.698 1812.343,929.105C1809.492,932.511 1805.382,935.122 1800.012,936.936C1794.644,938.75 1788.144,939.657 1780.512,939.657L1764.835,939.657L1764.835,936.597L1780.583,936.597C1786.781,936.597 1791.393,935.065 1794.419,931.999C1797.446,928.932 1798.959,924.294 1798.959,918.085C1798.959,912.137 1797.516,907.718 1794.629,904.83C1791.742,901.94 1787.27,900.496 1781.214,900.496L1772.96,900.496L1772.96,958.633L1754.855,958.633ZM1814.317,981.728C1809.24,981.728 1805.403,980.551 1802.806,978.196C1800.211,975.841 1798.364,971.88 1797.267,966.313L1794.696,953.798C1794.045,950.543 1793.182,948.006 1792.107,946.187C1791.033,944.367 1789.59,943.079 1787.778,942.321C1785.967,941.563 1783.58,941.185 1780.615,941.185L1765.691,941.185L1765.691,938.052L1779.515,938.052C1787.179,938.052 1793.316,938.647 1797.927,939.836C1802.539,941.024 1806.086,943.052 1808.569,945.919C1811.052,948.785 1812.896,952.784 1814.103,957.917L1815.924,965.396C1816.669,968.42 1817.556,970.558 1818.584,971.812C1819.612,973.066 1821.005,973.686 1822.764,973.674C1823.652,973.662 1824.471,973.478 1825.223,973.123C1825.975,972.767 1826.765,972.169 1827.591,971.328L1829.84,974.775C1827.81,977.177 1825.553,978.937 1823.071,980.054C1820.589,981.17 1817.671,981.728 1814.317,981.728ZM1762.376,979.738C1760.032,979.716 1757.604,979.724 1755.092,979.764C1752.579,979.804 1750.206,979.838 1747.973,979.866C1745.739,979.894 1743.836,979.944 1742.264,980.019L1742.264,975.432L1746.09,975.067C1748.518,974.76 1750.36,974.324 1751.615,973.761C1752.871,973.197 1753.725,972.252 1754.176,970.926C1754.629,969.601 1754.855,967.704 1754.855,965.236L1754.848,958.633L1772.953,958.633L1772.96,965.236C1772.96,968.971 1773.381,971.462 1774.223,972.708C1775.066,973.954 1776.947,974.782 1779.865,975.194L1781.946,975.467L1781.946,980.054C1780.649,979.98 1779.072,979.923 1777.214,979.883C1775.357,979.843 1773.388,979.804 1771.308,979.764C1769.23,979.724 1767.156,979.705 1765.088,979.705L1764.026,979.705L1762.376,979.738Z" style="fill:rgb(215,175,56);fill-rule:nonzero;"/>
            <path d="M1878.224,981.728C1869.464,981.728 1861.803,979.931 1855.242,976.338C1848.68,972.744 1843.589,967.685 1839.966,961.161C1836.345,954.637 1834.535,946.983 1834.535,938.201C1834.535,929.478 1836.372,921.809 1840.046,915.193C1843.721,908.576 1848.84,903.408 1855.405,899.688C1861.972,895.968 1869.596,894.108 1878.278,894.108C1887.043,894.108 1894.705,895.905 1901.265,899.499C1907.827,903.093 1912.918,908.143 1916.539,914.65C1920.161,921.155 1921.973,928.817 1921.973,937.635C1921.973,946.353 1920.142,954.022 1916.481,960.642C1912.822,967.26 1907.703,972.429 1901.126,976.15C1894.55,979.869 1886.916,981.728 1878.224,981.728ZM1878.417,977.271C1883.219,977.271 1887.47,975.64 1891.17,972.377C1894.872,969.115 1897.775,964.521 1899.88,958.597C1901.984,952.673 1903.036,945.749 1903.036,937.823C1903.036,929.783 1901.928,922.832 1899.71,916.971C1897.493,911.11 1894.502,906.578 1890.737,903.373C1886.972,900.168 1882.755,898.565 1878.086,898.565C1873.299,898.565 1869.054,900.198 1865.35,903.463C1861.646,906.728 1858.74,911.314 1856.633,917.22C1854.526,923.126 1853.473,930.057 1853.473,938.013C1853.473,946.018 1854.58,952.961 1856.795,958.843C1859.01,964.725 1862.009,969.267 1865.793,972.469C1869.577,975.67 1873.786,977.271 1878.417,977.271Z" style="fill:rgb(215,175,56);fill-rule:nonzero;"/>
        </g>
    </g>
</svg>
